# xmcd
#
# Track frame offsets: 
#        150
#        8680
#        17727
#        29012
#        42012
#        56077
#        65121
#        78769
#        86463
#        101146
#        113165
#        123604
#        135987
#        146898
#        157832
#        169851
#        180437
#        191320
#        204553
#        212884
#
# Disc length: 2949 seconds
#
# Revision: 3
# Processed by: cddbd v1.5.2PL0 Copyright (c) Steve Scherf et al.
# Submitted via: ExactAudioCopy v1.0b3
#
DISCID=100b8314
DTITLE=Lewis, Jerry Lee - The Essential Jerry Lee Lewis - The Legendar
DTITLE=y Sun Recordings [Disc 1]
DYEAR=2005
DGENRE=Rock 'n' Roll
TTITLE0=Great Balls Of Fire
TTITLE1=Lewis Boogie
TTITLE2=High School Confidential
TTITLE3=Whole Lotta Shakin' Goin' On
TTITLE4=Cold Cold Heart
TTITLE5=Don't Be Cruel
TTITLE6=Ramblin' Rose
TTITLE7=Waiting For A Train
TTITLE8=I've Been Twistin'
TTITLE9=I'm Feelin' Sorry
TTITLE10=Hello Josephine
TTITLE11=Crazy Arms
TTITLE12=Little Queenie
TTITLE13=Mean Woman Blues
TTITLE14=It Hurt Me So
TTITLE15=Gettin' In The Mood
TTITLE16=Carry Me Back To Old Virginia
TTITLE17=You Win Again
TTITLE18=Matchbox
TTITLE19=Save The Last Dance For Me
EXTD=
EXTT0=
EXTT1=
EXTT2=
EXTT3=
EXTT4=
EXTT5=
EXTT6=
EXTT7=
EXTT8=
EXTT9=
EXTT10=
EXTT11=
EXTT12=
EXTT13=
EXTT14=
EXTT15=
EXTT16=
EXTT17=
EXTT18=
EXTT19=
PLAYORDER=
